<svg height="257" preserveAspectRatio="xMidYMid" viewBox="0 0 257 257" width="257" xmlns="http://www.w3.org/2000/svg"><g fill-rule="evenodd"><path d="m107.713 83.671s65.053 65.054 65.053 65.054-24.041 24.041-24.041 24.041-65.054-65.054-65.054-65.054 24.042-24.041 24.042-24.041z" fill="#1c8cea"/><path d="m133.168 215.193s-2.828-16.971-2.828-16.971c-.532-3.36-1.475-9.839 3.535-14.849 0 0 49.498-49.498 49.498-49.498 5.01-5.009 11.489-4.067 14.849-3.535 0 0 16.971 2.828 16.971 2.828s-82.025 82.025-82.025 82.025zm-60.104-92.631c-5.01 5.01-11.489 4.067-14.849 3.535 0 0-16.971-2.828-16.971-2.828s82.025-82.025 82.025-82.025 2.828 16.971 2.828 16.971c.532 3.36 1.474 9.839-3.535 14.849 0 0-49.498 49.498-49.498 49.498z" fill="#3a75c7"/><path d="m254.084 173.473s-80.611 80.611-80.611 80.611c-3.124 3.124-8.189 3.124-11.313 0 0 0-29.699-29.699-29.699-29.699-3.124-3.124-3.124-8.189 0-11.314 0 0 80.61-80.61 80.61-80.61 3.125-3.124 8.19-3.124 11.314 0 0 0 29.699 29.699 29.699 29.699 3.124 3.124 3.124 8.189 0 11.313zm-210.718-49.497c-3.124 3.124-8.19 3.124-11.314 0 0 0-29.698-29.699-29.698-29.699-3.125-3.124-3.125-8.189 0-11.313 0 0 80.61-80.61 80.61-80.61 3.124-3.125 8.189-3.125 11.313 0 0 0 29.699 29.698 29.699 29.698 3.124 3.124 3.124 8.19 0 11.314 0 0-80.61 80.61-80.61 80.61z" fill="#ff0078"/><path d="m244.184 218.728s-25.456 25.456-25.456 25.456c-1.562 1.562-4.094 1.562-5.657 0 0 0-9.192-9.192-9.192-9.192s31.113-31.113 31.113-31.113 9.192 9.192 9.192 9.192c1.562 1.562 1.562 4.095 0 5.657zm-231.931-175.362c-1.562-1.562-1.562-4.095 0-5.657 0 0 25.456-25.456 25.456-25.456 1.562-1.562 4.095-1.562 5.657 0 0 0 9.192 9.192 9.192 9.192s-31.112 31.113-31.112 31.113-9.193-9.192-9.193-9.192z" fill="#01bef2"/></g></svg>